<svg xmlns="http://www.w3.org/2000/svg" width="24" height="23.119" viewBox="0 0 24 23.119">
  <g id="calendar-4" transform="translate(0 -9.388)">
    <path id="Path_5036" data-name="Path 5036" d="M0,168.526H24V159.4H0Zm17.794-7.8h2.483v1.409H17.794Zm0,2.4h2.483v1.409H17.794Zm0,2.4h2.483v1.409H17.794Zm-4.69-4.792h2.483v1.409H13.1Zm0,2.4h2.483v1.409H13.1Zm0,2.4h2.483v1.409H13.1Zm-4.69-4.792H10.9v1.409H8.413Zm0,2.4H10.9v1.409H8.413Zm0,2.4H10.9v1.409H8.413Zm-4.69-4.792H6.206v1.409H3.723Zm0,2.4H6.206v1.409H3.723Zm2.483,2.4v1.409H3.723v-1.409Z" transform="translate(0 -136.018)" fill="#72002f"/>
    <path id="Path_5037" data-name="Path 5037" d="M24,39.391H19.779v5.6H18.372v-5.6H5.628v5.6H4.221v-5.6H0v8.394H24Z" transform="translate(0 -27.205)" fill="#72002f"/>
    <rect id="Rectangle_2204" data-name="Rectangle 2204" width="3" height="3" transform="translate(3.684 9.541)" fill="#72002f"/>
    <rect id="Rectangle_2205" data-name="Rectangle 2205" width="2.798" height="2.798" transform="translate(17.241 9.388)" fill="#72002f"/>
  </g>
</svg>
