<svg xmlns="http://www.w3.org/2000/svg" width="23.373" height="22.515" viewBox="0 0 23.373 22.515">
  <g id="calendar-4" transform="translate(0 -9.388)">
    <path id="Path_5036" data-name="Path 5036" d="M0,168.287H23.373V159.4H0Zm17.329-7.595h2.418v1.372H17.329Zm0,2.333h2.418V164.4H17.329Zm0,2.333h2.418v1.372H17.329Zm-4.568-4.667h2.418v1.372H12.761Zm0,2.333h2.418V164.4H12.761Zm0,2.333h2.418v1.372H12.761Zm-4.568-4.667h2.418v1.372H8.194Zm0,2.333h2.418V164.4H8.194Zm0,2.333h2.418v1.372H8.194Zm-4.568-4.667H6.044v1.372H3.626Zm0,2.333H6.044V164.4H3.626Zm2.418,2.333v1.372H3.626v-1.372Z" transform="translate(0 -136.384)" fill="#72002f"/>
    <path id="Path_5037" data-name="Path 5037" d="M23.373,39.391H19.262v5.45h-1.37v-5.45H5.481v5.45H4.111v-5.45H0v8.175H23.373Z" transform="translate(0 -27.278)" fill="#72002f"/>
    <rect id="Rectangle_2204" data-name="Rectangle 2204" width="2.922" height="2.922" transform="translate(3.588 9.537)" fill="#72002f"/>
    <rect id="Rectangle_2205" data-name="Rectangle 2205" width="2.725" height="2.725" transform="translate(16.79 9.388)" fill="#72002f"/>
  </g>
</svg>
