<svg id="garbage" xmlns="http://www.w3.org/2000/svg" width="24" height="26.985" viewBox="0 0 24 26.985">
  <g id="Group_24" data-name="Group 24">
    <path id="Path_28" data-name="Path 28" d="M50.151,3.883H44.537V2.968A2.971,2.971,0,0,0,41.569,0H36.231a2.971,2.971,0,0,0-2.968,2.968v.915H27.649a.749.749,0,0,0,0,1.5H29v17.6a4.011,4.011,0,0,0,4.006,4.006H44.792A4.011,4.011,0,0,0,48.8,22.979V5.381h1.354a.749.749,0,0,0,0-1.5Zm-15.39-.915a1.473,1.473,0,0,1,1.47-1.47h5.337a1.473,1.473,0,0,1,1.47,1.47v.915H34.761ZM47.3,22.979a2.512,2.512,0,0,1-2.508,2.508H33.008A2.512,2.512,0,0,1,30.5,22.979V5.381H47.3v17.6Z" transform="translate(-26.9)" fill="#72002f"/>
    <path id="Path_29" data-name="Path 29" d="M230.588,162.864a.884.884,0,0,0,.888-.888V146.288a.888.888,0,1,0-1.775,0V161.97A.89.89,0,0,0,230.588,162.864Z" transform="translate(-218.588 -139.13)" fill="#72002f"/>
    <path id="Path_30" data-name="Path 30" d="M142.488,175.711a.884.884,0,0,0,.888-.888V161.088a.888.888,0,1,0-1.775,0v13.736A.888.888,0,0,0,142.488,175.711Z" transform="translate(-135.315 -152.862)" fill="#72002f"/>
    <path id="Path_31" data-name="Path 31" d="M318.688,175.711a.884.884,0,0,0,.888-.888V161.088a.888.888,0,1,0-1.775,0v13.736A.884.884,0,0,0,318.688,175.711Z" transform="translate(-301.86 -152.862)" fill="#72002f"/>
  </g>
</svg>
