<svg xmlns="http://www.w3.org/2000/svg" width="514" height="114" viewBox="0 0 514 114">
  <g id="Group_4191" data-name="Group 4191" transform="translate(-2822 -1127)">
    <g id="Rectangle_2232" data-name="Rectangle 2232" transform="translate(2822 1127)" fill="#fff" stroke="rgba(112,112,112,0.37)" stroke-width="1">
      <rect width="514" height="114" stroke="none"/>
      <rect x="0.5" y="0.5" width="513" height="113" fill="none"/>
    </g>
    <text id="Налив._3г" data-name="Налив. 3г" transform="translate(2853 1170)" fill="#031888" font-size="26" font-family="SegoeUI, Segoe UI"><tspan x="0" y="0">Налив. 3г</tspan></text>
    <text id="_20.07.2025_12:30" data-name="20.07.2025 12:30" transform="translate(3157 1171)" fill="#031888" font-size="22" font-family="SegoeUI, Segoe UI"><tspan x="0" y="0">20.07.2025 12:30</tspan></text>
    <g id="star" transform="translate(3157 1202)">
      <path id="Path_81" data-name="Path 81" d="M23.967,19.671a.669.669,0,0,0-.537-.453l-7.487-1.064L12.574,11.38a.668.668,0,0,0-.6-.369h0a.663.663,0,0,0-.6.374L8.057,18.178.569,19.291a.669.669,0,0,0-.537.453.658.658,0,0,0,.172.68L5.638,25.69,4.382,33.148a.669.669,0,0,0,.655.778.632.632,0,0,0,.31-.079l6.684-3.542,6.7,3.5a.68.68,0,0,0,.305.074h0a.669.669,0,0,0,.665-.665.52.52,0,0,0-.02-.153l-1.3-7.413,5.4-5.3A.651.651,0,0,0,23.967,19.671Zm-6.748,5.276a.657.657,0,0,0-.187.591l1.128,6.468-5.822-3.039a.674.674,0,0,0-.621,0l-5.8,3.074L7,25.562a.664.664,0,0,0-.192-.586L2.1,20.4l6.5-.965a.66.66,0,0,0,.5-.365l2.887-5.9,2.926,5.882a.677.677,0,0,0,.5.365l6.5.926Z" transform="translate(0 -11.011)" fill="#72002f"/>
    </g>
    <g id="garbage" transform="translate(3298.551 1200)">
      <g id="Group_24" data-name="Group 24">
        <path id="Path_28" data-name="Path 28" d="M50.151,3.883H44.537V2.968A2.971,2.971,0,0,0,41.569,0H36.231a2.971,2.971,0,0,0-2.968,2.968v.915H27.649a.749.749,0,0,0,0,1.5H29v17.6a4.011,4.011,0,0,0,4.006,4.006H44.792A4.011,4.011,0,0,0,48.8,22.979V5.381h1.354a.749.749,0,0,0,0-1.5Zm-15.39-.915a1.473,1.473,0,0,1,1.47-1.47h5.337a1.473,1.473,0,0,1,1.47,1.47v.915H34.761ZM47.3,22.979a2.512,2.512,0,0,1-2.508,2.508H33.008A2.512,2.512,0,0,1,30.5,22.979V5.381H47.3v17.6Z" transform="translate(-26.9)" fill="#72002f"/>
        <path id="Path_29" data-name="Path 29" d="M230.588,162.864a.884.884,0,0,0,.888-.888V146.288a.888.888,0,1,0-1.775,0V161.97A.89.89,0,0,0,230.588,162.864Z" transform="translate(-218.588 -139.13)" fill="#72002f"/>
        <path id="Path_30" data-name="Path 30" d="M142.488,175.711a.884.884,0,0,0,.888-.888V161.088a.888.888,0,1,0-1.775,0v13.736A.888.888,0,0,0,142.488,175.711Z" transform="translate(-135.315 -152.862)" fill="#72002f"/>
        <path id="Path_31" data-name="Path 31" d="M318.688,175.711a.884.884,0,0,0,.888-.888V161.088a.888.888,0,1,0-1.775,0v13.736A.884.884,0,0,0,318.688,175.711Z" transform="translate(-301.86 -152.862)" fill="#72002f"/>
      </g>
    </g>
    <g id="edit" transform="translate(2866 1179)">
      <path id="Path_24" data-name="Path 24" d="M22.446,1.581a5.293,5.293,0,0,0-7.492,0L1.219,15.311a.687.687,0,0,0-.194.394L.007,23.243a.685.685,0,0,0,.194.578.7.7,0,0,0,.486.2.556.556,0,0,0,.092-.005l4.541-.614a.691.691,0,1,0-.184-1.37L1.5,22.527l.711-5.257L7.739,22.8a.7.7,0,0,0,.486.2.677.677,0,0,0,.486-.2L22.446,9.073a5.29,5.29,0,0,0,0-7.492ZM15.22,3.269l2.306,2.306L4.993,18.109,2.687,15.8ZM8.23,21.34,5.975,19.085,18.508,6.552l2.255,2.255ZM21.725,7.82,16.207,2.3A3.92,3.92,0,0,1,21.725,7.82Z" transform="translate(-10 20.972)" fill="#72002f"/>
    </g>
    <g id="Group_21" data-name="Group 21" transform="translate(3230.102 1202.809)">
      <g id="Group_4187" data-name="Group 4187" transform="translate(0 -0.964)">
        <path id="Path_20" data-name="Path 20" d="M23.312,228.257a.7.7,0,0,0-.688.719v6.542a3.159,3.159,0,0,1-3.081,3.223H4.457a3.159,3.159,0,0,1-3.081-3.223v-6.649a.7.7,0,0,0-.688-.719.7.7,0,0,0-.688.719v6.649a4.568,4.568,0,0,0,4.457,4.662H19.543A4.568,4.568,0,0,0,24,235.518v-6.542A.7.7,0,0,0,23.312,228.257Z" transform="translate(0 -217.103)" fill="#72002f"/>
        <path id="Path_21" data-name="Path 21" d="M140.8,17.466a.673.673,0,0,1,.484-.216.653.653,0,0,1,.484.216l4.37,4.631a.757.757,0,0,1,0,1.031.659.659,0,0,1-.973,0l-3.194-3.39V34.522a.689.689,0,1,1-1.375,0V19.738l-3.2,3.39a.659.659,0,0,1-.973,0,.757.757,0,0,1,0-1.031Z" transform="translate(-129.284 -16.095)" fill="#72002f"/>
      </g>
    </g>
    <g id="Group_4188" data-name="Group 4188" transform="translate(11.5 -1.501)">
      <line id="Line_199" data-name="Line 199" y2="18" transform="translate(2891.5 1204.5)" fill="none" stroke="#72002f" stroke-width="2"/>
      <line id="Line_200" data-name="Line 200" x2="17" transform="translate(2891.5 1221.5)" fill="none" stroke="#72002f" stroke-width="2"/>
      <g id="Ellipse_509" data-name="Ellipse 509" transform="translate(2894 1214)" fill="#72002f" stroke="#72002f" stroke-width="1">
        <circle cx="2.5" cy="2.5" r="2.5" stroke="none"/>
        <circle cx="2.5" cy="2.5" r="2" fill="none"/>
      </g>
      <g id="Ellipse_511" data-name="Ellipse 511" transform="translate(2897 1207)" fill="#72002f" stroke="#72002f" stroke-width="1">
        <circle cx="2.5" cy="2.5" r="2.5" stroke="none"/>
        <circle cx="2.5" cy="2.5" r="2" fill="none"/>
      </g>
      <g id="Ellipse_512" data-name="Ellipse 512" transform="translate(2904 1205)" fill="#72002f" stroke="#72002f" stroke-width="1">
        <circle cx="2.5" cy="2.5" r="2.5" stroke="none"/>
        <circle cx="2.5" cy="2.5" r="2" fill="none"/>
      </g>
    </g>
  </g>
</svg>
