<svg xmlns="http://www.w3.org/2000/svg" xmlns:xlink="http://www.w3.org/1999/xlink" width="669.368" height="1439.612" viewBox="0 0 669.368 1439.612">
  <defs>
    <clipPath id="clip-path">
      <path id="Path_4870" data-name="Path 4870" d="M63.636,0h542.1a63.636,63.636,0,0,1,63.636,63.636v1312.34a63.636,63.636,0,0,1-63.636,63.636H63.636A63.636,63.636,0,0,1,0,1375.976V63.636A63.636,63.636,0,0,1,63.636,0Z" transform="translate(13330.206 10396.489)" fill="#72002f"/>
    </clipPath>
  </defs>
  <g id="Group_3915" data-name="Group 3915" transform="translate(-13330.206 -10396.489)">
    <path id="Path_4754" data-name="Path 4754" d="M63.636,0h542.1a63.636,63.636,0,0,1,63.636,63.636v1312.34a63.636,63.636,0,0,1-63.636,63.636H63.636A63.636,63.636,0,0,1,0,1375.976V63.636A63.636,63.636,0,0,1,63.636,0Z" transform="translate(13330.206 10396.489)" fill="#72002f"/>
  </g>
</svg>
