<svg xmlns="http://www.w3.org/2000/svg" width="21.225" height="26.131" viewBox="0 0 21.225 26.131">
  <g id="Location" style="isolation: isolate">
    <rect id="Rectangle_305" data-name="Rectangle 305" width="19" height="19" transform="translate(0 0)" fill="none"/>
    <path id="Path_114" data-name="Path 114" d="M10.08,15.5a4.421,4.421,0,0,0,4.282-4.559A4.568,4.568,0,0,0,10.08,6.218,4.421,4.421,0,0,0,5.8,10.777C5.8,13.219,7.786,15.5,10.08,15.5ZM2.892,3.125a9.724,9.724,0,0,1,14.375,0,11.309,11.309,0,0,1,0,15.3L10.08,26.081,2.892,18.429A11.644,11.644,0,0,1,2.892,3.125Z" transform="translate(0.975 0.05)" fill="#fff" fill-rule="evenodd"/>
  </g>
</svg>
