<svg xmlns="http://www.w3.org/2000/svg" xmlns:xlink="http://www.w3.org/1999/xlink" width="389.955" height="340.556" viewBox="0 0 389.955 340.556">
  <defs>
    <filter id="Path_5224" x="0" y="0" width="389.955" height="340.556" filterUnits="userSpaceOnUse">
      <feOffset dx="9" dy="6" input="SourceAlpha"/>
      <feGaussianBlur stdDeviation="19.5" result="blur"/>
      <feFlood flood-opacity="0.161"/>
      <feComposite operator="in" in2="blur"/>
      <feComposite in="SourceGraphic"/>
    </filter>
  </defs>
  <g transform="matrix(1, 0, 0, 1, 0, 0)" filter="url(#Path_5224)">
    <g id="Path_5224-2" data-name="Path 5224" transform="translate(49.5 52.5)" fill="#a56981" opacity="0.9">
      <path d="M 221.9553375244141 222.5556488037109 L 51.00001907348633 222.5556488037109 C 44.24962615966797 222.5556488037109 37.70166015625 221.2337951660156 31.53805351257324 218.6268310546875 C 25.58423233032227 216.1085510253906 20.23691177368164 212.5032196044922 15.64466094970703 207.9110107421875 C 11.05244731903076 203.3187561035156 7.447125434875488 197.971435546875 4.928839683532715 192.0176239013672 C 2.321875333786011 185.85400390625 1.000018239021301 179.3060455322266 1.000018239021301 172.5556488037109 L 1.000018239021301 51.0000114440918 C 1.000018239021301 44.24961853027344 2.321875333786011 37.70165252685547 4.928839683532715 31.53804588317871 C 7.447125434875488 25.58422470092773 11.05244731903076 20.23690414428711 15.64466094970703 15.6446533203125 C 20.23691177368164 11.05243873596191 25.58423233032227 7.447117805480957 31.53805351257324 4.928832054138184 C 37.70166015625 2.321867704391479 44.24962615966797 1.00001060962677 51.00001907348633 1.00001060962677 L 221.9553375244141 1.00001060962677 C 228.7057342529297 1.00001060962677 235.253662109375 2.321867704391479 241.4172668457031 4.928832054138184 C 247.3711242675781 7.447117805480957 252.7184448242188 11.05243873596191 257.3106689453125 15.6446533203125 C 261.9029235839844 20.23690414428711 265.5082397460938 25.58422470092773 268.0264892578125 31.53804588317871 C 270.6334838867188 37.70165252685547 271.9553527832031 44.24961853027344 271.9553527832031 51.0000114440918 L 271.9553527832031 172.5556488037109 C 271.9553527832031 179.3060455322266 270.6334838867188 185.85400390625 268.0264892578125 192.0176239013672 C 265.5082397460938 197.971435546875 261.9029235839844 203.3187561035156 257.3106689453125 207.9110107421875 C 252.7184448242188 212.5032196044922 247.3711242675781 216.1085510253906 241.4172668457031 218.6268310546875 C 235.253662109375 221.2337951660156 228.7057342529297 222.5556488037109 221.9553375244141 222.5556488037109 Z" stroke="none"/>
      <path d="M 50.99998474121094 2.000015258789062 C 44.3841552734375 2.000015258789062 37.96726989746094 3.295303344726562 31.92759704589844 5.849868774414062 C 26.09294128417969 8.31768798828125 20.85247802734375 11.85104370117188 16.35177612304688 16.35176086425781 C 11.85101318359375 20.85250854492188 8.317657470703125 26.09297180175781 5.849853515625 31.9276123046875 C 3.295257568359375 37.96730041503906 1.999969482421875 44.3841552734375 1.999969482421875 51.00001525878906 L 1.999969482421875 172.5556488037109 C 1.999969482421875 179.1715087890625 3.295257568359375 185.5883636474609 5.849853515625 191.6280517578125 C 8.317657470703125 197.4626922607422 11.85101318359375 202.7031555175781 16.35177612304688 207.2039031982422 C 20.85247802734375 211.7046203613281 26.09294128417969 215.2379760742188 31.92759704589844 217.7057952880859 C 37.96726989746094 220.2603607177734 44.3841552734375 221.5556488037109 50.99998474121094 221.5556488037109 L 221.9553070068359 221.5556488037109 C 228.5711669921875 221.5556488037109 234.9880218505859 220.2603607177734 241.0276947021484 217.7057952880859 C 246.8623352050781 215.2379760742188 252.1028442382812 211.7046203613281 256.6035461425781 207.2039031982422 C 261.1042785644531 202.7031860351562 264.6376342773438 197.4626922607422 267.1054382324219 191.6280517578125 C 269.6600036621094 185.5883636474609 270.9552917480469 179.1715087890625 270.9552917480469 172.5556488037109 L 270.9552917480469 51.00001525878906 C 270.9552917480469 44.3841552734375 269.6600036621094 37.96730041503906 267.1054382324219 31.9276123046875 C 264.6376342773438 26.09297180175781 261.1042785644531 20.85247802734375 256.6035461425781 16.35176086425781 C 252.1028442382812 11.85104370117188 246.8623352050781 8.31768798828125 241.0276947021484 5.849868774414062 C 234.9880218505859 3.295303344726562 228.5711669921875 2.000015258789062 221.9553070068359 2.000015258789062 L 50.99998474121094 2.000015258789062 M 50.99998474121094 1.52587890625e-05 L 221.9553070068359 1.52587890625e-05 C 250.1218414306641 1.52587890625e-05 272.9552917480469 22.83348083496094 272.9552917480469 51.00001525878906 L 272.9552917480469 172.5556488037109 C 272.9552917480469 200.7221832275391 250.1218414306641 223.5556488037109 221.9553070068359 223.5556488037109 L 50.99998474121094 223.5556488037109 C 22.83348083496094 223.5556488037109 -3.0517578125e-05 200.7221832275391 -3.0517578125e-05 172.5556488037109 L -3.0517578125e-05 51.00001525878906 C -3.0517578125e-05 22.83348083496094 22.83348083496094 1.52587890625e-05 50.99998474121094 1.52587890625e-05 Z" stroke="none" fill="#72002f"/>
    </g>
  </g>
</svg>
