<svg xmlns="http://www.w3.org/2000/svg" width="270.954" height="221.557" viewBox="0 0 270.954 221.557">
  <path id="Subtraction_1" data-name="Subtraction 1" d="M-6493.8,368.172h-9.81l-3.821-3.481,17.317-28.863,11.99,2.175-15.676,30.169Zm55.279,0h-13.224l1.152-7.167,13.053,1.82-.981,5.345Zm-15.593,0h-10.573l-9.22-2.194,4.441-26.421,19.359,3.464-4.008,25.15Zm-22.592,0h-14.4l15.472-29.768,3.818.71Zm-30.407,0h-16.9l3.795-11.874,13.1,11.873Zm-25.185,0h-20.5l-.816-2.017,26.244-13.365-4.929,15.381Zm-23.04,0h-17.05l-2.494-9.876,13.942-3.953,5.6,13.827Zm-25.15,0h-9.013a50.723,50.723,0,0,1-5.771-.329l2.583-13.187c3.072,1.059,5.817,2.028,8.024,2.806l1.611.568,2.565,10.141Zm166.164-.176h0l-15.8-2.2,3.419-18.561,27.221,4.885-1.874,13.015A49.786,49.786,0,0,1-6414.325,368Zm-183.3-.48h0a49.712,49.712,0,0,1-11.876-3.5,50.007,50.007,0,0,1-10.443-6.173l4.831-11c5.814,2.044,12.44,4.361,18.287,6.405l.376.131,1.5.523-2.67,13.614Zm43.123-3.535h0l-4.4-10.878,7.239-9.547,24.82,6.348L-6554.5,363.98Zm45.292-.889h0l-10.212-9.28,7.015-21.982,19.8,3.552-16.606,27.709Zm112.959-.156v0l1.427-10.011,10.326,1.861a50.086,50.086,0,0,1-11.751,8.151Zm-40.934-2.465h0l-13.055-1.82,2.4-15.23,13.366,2.4-2.709,14.652Zm-184.623-4.136h0a50.3,50.3,0,0,1-8.634-9.452l1.605-4.839,3.646,1.281,7.856,2.76-4.473,10.249Zm46.3-.348h0l-4.973-19.8,26.288,6.7-6.793,8.969-14.521,4.131Zm-8.3-.667h0l-22.912-8.036,4.441-17.317,13.055,3.908,5.417,21.445Zm202.84-7.9h0l-9.458-1.689,2.266-12.166,8.969,1.82-1.775,12.033Zm-227.974-.934h0l-19.182-6.7,5.328-15.94,18.251,5.418-4.4,17.226Zm83.881-1.02h0l-8.3-2.132,3.775-13.9,8.747,2.931-4.217,13.1Zm132.326-.178h0l-11.989-2.13,2.442-12.39,11.768,2.354-2.22,12.165Zm17.071-1.389h0l1.537-10.51V300.97l-2.4,16.429-22.025-5.328c1.146-6,4.168-21.907,5.151-27.086l19.271,3.641v-4.8l-12.433-2.354,9.814-53.419,2.619.49v-8.039l-6.438-1.2,1.73-12.034,4.708-.977v-2.4l-4.351.889,3.817-26.554.534.088v-4.686A49.758,49.758,0,0,1-6370,184.6a50.213,50.213,0,0,1,1.453,12.016V318.17a50.1,50.1,0,0,1-1.865,13.575A49.738,49.738,0,0,1-6375.665,343.9Zm-159.966-1.1h0l-12.521-3.2,5.728-14.432,10.612,3.552-3.819,14.076Zm128.6-.045h0l-19.714-3.552,5.417-27.841,19.583,4.751c-.591,2.933-1.684,8.463-2.741,13.81l-.016.078c-.88,4.454-1.878,9.5-2.528,12.753Zm-226.664-1.178v0c-.229-.431-.454-.87-.668-1.3l1,.31-.333.995Zm202.287-3.218h0l-19-3.419-10.746-13.143,30.862-18.251,4.573,5.595-5.683,29.217Zm-121.36-.044h0l-13.453-3.419-5.506-19.45,8.7-5.018,22.159-1.909-11.9,29.8Zm-79.794,0h0c-.839-.255-1.89-.578-3.124-.959a49.717,49.717,0,0,1-3.807-18.464l12.216,3.616-5.284,15.806Zm178.6-4h0l-41.25-7.415,23.714-14.077,17.538,21.49Zm-114.963-.045h0l-12.876-3.285-2.131-8.48,10.079-5.818,4.929,17.582Zm190.1-1.242h0l-22.956-4.619,2.311-11.766,22.246,5.416-1.6,10.968Zm-141.3-2.932h0l-21.446-7.148,8.792-22.025,19.538,7.727-6.883,21.446Zm-70.379-1.6h0l-20.825-6.173,15.63-14.342,5.2,20.513Zm88.187-2.842h0l-7.639-1.377,9.459-29.528,16.874,4c-.663,3.055-1.312,6.024-1.885,8.643l-.078.357-.016.071c-.835,3.819-1.557,7.116-1.974,9.092l-14.742,8.747ZM-6614,321.529l-25.5-7.587v-6.27l4.673-20.069,33.748-.977,4.751,18.784L-6614,321.529Zm29.485-1.422h0l-4.44-17.538,12.656-8.482c.829,1.111,2.431,3.245,4.126,5.5l.292.389.261.348c2.424,3.23,5.172,6.892,6.466,8.633l-19.36,11.145Zm121.892-.222v0h0l-6.837-8.3,30.817-18.339,6.882,8.392Zm-22.158-4.708v0l3.2-14.694,7.06,8.614-10.255,6.082Zm83.926-3.729h0l-19.582-4.751,5.061-25.933,19.671,3.686-5.15,27Zm-161.989-3.419h0l-11.5-15.32,11.413-7.68,23.445,19.936-.445,1.11-22.912,1.954Zm90.364-.133v0h0l-8.126-9.944,25.978-24.2,12.966,15.854Zm-40.009-1.51h0l-19.4-7.68,5.195-13.011,18.651,6.793-4.44,13.9Zm87.967-3.286v0l-23.179-28.372,27.708,5.194-4.527,23.177Zm-114.033-.443h0l-9.1-7.726,10.968-15.542,5.728,4.174-7.593,19.093Zm-51.02-2.531h0l-1.643-6.437,9.325-6.707,4.129,5.2-11.81,7.948Zm-49.919-2.877h0v-1.061l.231.074Zm156.357-.809h0l-16.651-3.907,8.3-25.976,14.3,2.664c-1.068,5.019-3.626,16.72-5.95,27.219Zm2.886-2.042v0l5.417-24.776,17.584,3.286-23,21.491Zm-158.479-.444h0l-.764-.246V275.735l5.116-.476-4.351,18.695Zm89.253-.578h0l-18.96-16.073,14.475-10.436,15.363,11.1-10.876,15.408Zm-26.333-2.531h0c-.588-.749-1.5-1.9-2.453-3.107-.6-.757-1.2-1.518-1.72-2.177l9.547-6.883,5.595,4.751-10.967,7.416Zm68.472-.622h0l-18.515-6.7,4.484-11.279c7.844,4.5,14.9,8.071,16.874,9.059l-2.842,8.924Zm-85.08-1.51h0l-7.55-29.972,22.692-4.351,5.773,19.271-20.914,15.053Zm-41.873-3.464h0l2.4-10.211,27.219-2.576,2.976,11.813-32.591.975Zm104.263-4h0l-21.891-15.851,10.124-7.283a22.387,22.387,0,0,0,1.775,1.777,104.15,104.15,0,0,0,14.52,9.947l-4.527,11.41Zm141.161-.265h0l-25.62-4.8,4.263-21.937,25.313,5.106-3.955,21.626Zm-114.163-4.219h0c-7.439-3.782-25.637-13.348-33.925-20.471l-.024-.022a13.619,13.619,0,0,1-1.131-1.089l19.006-16.3,21.315,21.537-5.239,16.339Zm83.881-1.465h0l-31.838-5.995,4.661-29.042,33.083,4.8-5.9,30.239Zm-220.348-4.313h0V239.04l3.119-.46,4.174,31.706-7.292.705Zm72.035-.217h0l-4.219-14.03,10.479-5.018,4.4,11.413-10.657,7.636Zm-62.389-.71h0l-2.042-15.586,24.911,8.7,1.155,4.618-24.023,2.265Zm174.244-1.644h0l-18.336-3.464c.351-2.115.881-5.384,1.42-8.747l18.473,2.487-1.555,9.723Zm-20.691-3.863h0l-13.721-2.575,6.128-19.138,10.791,2.174-3.2,19.539Zm-78.508-2.887h0l-11.854-30.726,8.125-11.013c3.053,10.709,7.94,25.372,13.9,34.413l-10.168,7.326Zm-52.886-1.242h0l-24.554-8.57-1.775-13.633,19.981-2.974,6.349,25.176Zm223.224-3.419h0l-25.31-5.108,5.683-29,25.044,4.706-5.416,29.4Zm-216.119-.534-8.88-35.3,21.358-2.621,10.124,33.526-22.6,4.4Zm146.891-.133h0l-18.471-2.442c.464-2.815,1.08-6.562,1.377-8.437l18.25,3.686-1.155,7.192Zm-42.451-.977h0l-19.358-19.582,15.142-13.01,12.566,6.438-8.348,26.153Zm-76.243-.932h0l-3.374-11.19,7.415-10.079,6.306,16.3-10.346,4.974Zm31.439-2.976h0a82.973,82.973,0,0,1-7.459-15.763l8.3-3.2,6.572,12.566-7.415,6.394Zm88.809-4.663h0l-30.993-6.216,6.617-20.648a17.157,17.157,0,0,0,11.944-8.349l17.541,3.286-5.108,31.926Zm-79.528-3.331h0l-6.216-11.9,7.327-2.842,8.037,6.838-9.146,7.9Zm-44.937-3.019v0l-6.75-22.423,23.534-2.886c.1.412.213.845.337,1.3v.006q.074.272.149.555l-17.271,23.444Zm164.253-.045h0l-20.871-3.019,2.709-19.4,21.759,4.084-3.6,18.338Zm-23.179-3.374h0l-9.991-1.465,3.2-19.85,9.5,1.822c-.384,2.755-.918,6.6-1.39,10.007-.494,3.559-.995,7.171-1.318,9.485Zm-203.962-.376h0V224.857l22.124-2.705,2.754,10.834-24.876,3.665Zm118.792-2.643h0l-8.3-7.058,4.574-16.164,28.242-3.464a17.105,17.105,0,0,0,1.73,4.174Zm-28.507-.578h0c-2.987-8.352-5.095-15.979-5.862-18.87l28.153-3.464-4.351,15.409-17.938,6.926Zm62.121-6.482h0l-11.365-5.818,6.881-5.906a17.487,17.487,0,0,0,6.927,4.174l-2.442,7.549Zm98.8-9.06h0l-6.659-1.242,2.042-21.982,7.948.045-3.331,23.178Zm-251.208-.974h0v-8.327l20.479.955,1.246,4.708-21.724,2.666Zm242.194-.712h0l-4.439-.844-2.487-60.879,12.566.223Zm-9.192-1.734h0l-22.779-4.261c.313-1.813.7-4.076,1.1-6.383l.172-1c.694-4.033,1.344-7.8,1.659-9.624l19.095,2.042.755,19.225Zm-203.73-1.154v0l7.816-21.49,11.9,19.093-19.717,2.4Zm130.729-1.022a9.38,9.38,0,0,1-9.369-9.369,9.38,9.38,0,0,1,9.369-9.369,9.38,9.38,0,0,1,9.37,9.369A9.38,9.38,0,0,1-6479.5,212.292Zm-108.437-1.687-12.921-20.736,20.56-3.2-.045,23-7.593.932h0ZM-6614,209.9v0l-10.566-40.8,22.559,7.949L-6614,209.892Zm182.371-.178h0l-8.925-1.687,2.843-16.074,9.015.977-2.932,16.783Zm-146.314-.31h0l.045-23.089,22.469-3.507,2.664,23.534-25.176,3.064Zm132.728-2.22h0l-17.052-3.2c0-.175.011-.342.022-.5v-.028c.01-.157.021-.319.021-.488a17.823,17.823,0,0,0-1.422-6.883l16.076-9.681,4.4,9.459-2.042,11.322Zm-174.379-.045h0l-18.338-.843-1.563-8.828v-.854a49.754,49.754,0,0,1,3.551-18.542l8.625-.816,7.726,29.882Zm69.139-1.109h0l-1.11-9.813,13.765-1.687,1.51,9.769-14.164,1.732Zm18.871-2.311h0l-3.729-24.021,16.03-2.487,3.774,24.557-16.075,1.952Zm18.473-2.264h0l-3.819-24.6,17.941-2.8,7.9,16.164a17.165,17.165,0,0,0-5.24,9.192l-16.785,2.042Zm48.358-7.505h0a17.4,17.4,0,0,0-5.152-5.372l6.618-36.057,14.7,31.706-16.161,9.723Zm-87.079-.088h0l-1.287-11.367,13.143-2.042,1.82,11.768-13.676,1.642Zm144.449-1.065h0l-29.971-3.2,2.219-12.788,27.043-.267.71,16.251Zm22.735-.443h0l-8.081-.045,3.349-36.316a50.347,50.347,0,0,1,8.794,8.07l-4.061,28.29Zm-57.148-4.663v0l-19.013-41.075h5.831l19.4,5.731-6.216,35.343Zm-42.361-1.332h0l-19.527-39.746h14.952l4.929,39.656-.07.025-.01,0A.745.745,0,0,1-6484.163,186.361Zm6.7-.49h0c-.341-.025-.668-.051-1-.078l-.687-.055-4.836-39.122h13.75Zm-122.468-.887v0l14-38.367h1.332l13.306,5.021-8.437,30.194-20.2,3.154Zm22.78-3.552h0l8.081-28.95,9.946,3.774-5.728,23.269-12.3,1.909Zm14.787-2.266h0l5.417-22.024,11.146,4.219,1.909,14.92-18.471,2.885Zm23.179-3.641v0h0l-1.2-9.412,34.28-6.483,4.886,9.991Zm-62.033-.71h0l-11.588-4.084,4.084-14.61,12.435,5.151-4.929,13.542Zm166.518-.31h0l3.776-21.447,21.936.177.845,21Zm-198.932-1.424v0a50.255,50.255,0,0,1,3.655-5.833l1.4,5.348-5.058.487Zm18.6-3.151h0l-10.256-3.641-.937-3.614a50.178,50.178,0,0,1,11.34-9.151l3.984,1.663-4.129,14.742Zm74.334-6.171h0l-2.173-17.143h12.909c1.622,4.821,3.883,11.539,4.8,14.212l-15.54,2.932Zm17.894-3.331h0l-4.648-13.812h14.964l5.314,10.837-15.63,2.976Zm-72.69-1.377h0l-12.565-5.239,1.14-4.082a49.8,49.8,0,0,1,15.943-3.094l-4.517,12.414Zm49.378-.355h0l-22.2-8.436,1.667-3.644h19.007l1.528,12.079Zm-64.165-5.773h0l-2-.831c.856-.439,1.727-.853,2.585-1.232l-.579,2.063Zm201.2-2.042h0l-21.448-.178.725-4.088h11.252a50.44,50.44,0,0,1,9.335.87l.137,3.4Zm-26.155-.889h0l-11.469-3.377h12.068l-.6,3.376Zm34.234-.208-3.417-.059-.044-1.1c1.169.343,2.333.732,3.461,1.155Zm-169.492-.414h0l-7.243-2.755h8.5l-1.25,2.755Z" transform="translate(6639.502 -146.616)" fill="rgba(114,0,47,0.53)"/>
</svg>
