<?xml version="1.0" encoding="UTF-8"?>
<!DOCTYPE svg PUBLIC "-//W3C//DTD SVG 1.1//EN" "http://www.w3.org/Graphics/SVG/1.1/DTD/svg11.dtd">
<!-- Creator: CorelDRAW 2019 (64-Bit) -->
<svg xmlns="http://www.w3.org/2000/svg" xml:space="preserve" width="10.259mm" height="10.2393mm" version="1.1" style="shape-rendering:geometricPrecision; text-rendering:geometricPrecision; image-rendering:optimizeQuality; fill-rule:evenodd; clip-rule:evenodd"
viewBox="0 0 39.06 38.98"
 xmlns:xlink="http://www.w3.org/1999/xlink">
 <defs>
  <style type="text/css">
   <![CDATA[
    .str1 {stroke:black;stroke-width:1.52;stroke-miterlimit:22.9256}
    .str2 {stroke:#850303;stroke-width:1.52;stroke-miterlimit:22.9256}
    .str3 {stroke:red;stroke-width:1.52;stroke-miterlimit:22.9256}
    .str5 {stroke:#3D3C3C;stroke-width:1.14;stroke-miterlimit:22.9256}
    .str4 {stroke:#B5B5B5;stroke-width:0.95;stroke-miterlimit:22.9256}
    .str0 {stroke:#666666;stroke-width:0.38;stroke-miterlimit:22.9256}
    .fil1 {fill:none}
    .fil0 {fill:url(#id0)}
   ]]>
  </style>
  <linearGradient id="id0" gradientUnits="userSpaceOnUse" x1="6.15" y1="6.09" x2="32.91" y2="32.9">
   <stop offset="0" style="stop-opacity:1; stop-color:#FDFDFD"/>
   <stop offset="1" style="stop-opacity:1; stop-color:#26B7FF"/>
  </linearGradient>
 </defs>
 <g id="Слой_x0020_1">
  <metadata id="CorelCorpID_0Corel-Layer"/>
  <polygon class="fil0" points="3.85,2.76 5.08,1.88 6.12,1.34 7.35,0.9 9.94,0.57 29.25,0.57 33.08,1.41 34.13,1.97 34.87,2.49 35.67,3.18 36.54,4.16 37.59,5.86 38.49,8.96 38.49,28.51 37.99,32.14 37.38,33.55 36.55,34.81 35.94,35.52 35.17,36.25 34.56,36.72 34.17,36.98 33.53,37.35 32.35,37.87 29.25,38.41 9.81,38.41 8.03,38.24 6.03,37.6 4.87,36.97 3.79,36.17 2.82,35.2 1.59,33.38 0.78,31.11 0.57,28.23 0.57,9.63 1,7.04 1.69,5.41 3.04,3.54 "/>
  <line class="fil1 str0" x1="34.88" y1="11.34" x2="4.47" y2= "11.34" />
  <line class="fil1 str0" x1="34.88" y1="17.4" x2="4.47" y2= "17.4" />
  <line class="fil1 str0" x1="34.88" y1="23.46" x2="4.47" y2= "23.46" />
  <line class="fil1 str0" x1="34.88" y1="29.51" x2="4.47" y2= "29.51" />
  <line class="fil1 str0" x1="7.93" y1="7.45" x2="7.93" y2= "31.73" />
  <line class="fil1 str0" x1="14.88" y1="7.45" x2="14.88" y2= "31.73" />
  <line class="fil1 str0" x1="23.97" y1="7.45" x2="23.97" y2= "31.73" />
  <line class="fil1 str0" x1="31.99" y1="7.45" x2="31.99" y2= "31.73" />
  <line class="fil1 str1" x1="20.5" y1="7.39" x2="20.5" y2= "32.2" />
  <line class="fil1 str1" x1="3.26" y1="31.74" x2="35.31" y2= "31.74" />
  <path class="fil1 str2" d="M3.46 29.78c3.3,0.04 6.66,-0.07 9.73,-0.82 5.2,-1.58 8.44,-5.44 12.02,-9.55l8.58 -9.75"/>
  <path class="fil1 str3" d="M3.32 29.46c3.3,0.04 6.66,-0.07 9.72,-0.82 5.2,-1.58 8.44,-5.44 12.02,-9.55l8.58 -9.75"/>
  <rect class="fil1 str4" x="1.05" y="1.05" width="36.96" height="36.88" rx="9" ry="9"/>
  <rect class="fil1 str5" x="0.57" y="0.57" width="37.91" height="37.84" rx="9.24" ry="9.24"/>
 </g>
</svg>
